<?xml version="1.0" encoding="UTF-8"?>
<svg width="110px" height="96px" viewBox="0 0 110 96" version="1.1" xmlns="http://www.w3.org/2000/svg" xmlns:xlink="http://www.w3.org/1999/xlink">
    <!-- Generator: Sketch 52.5 (67469) - http://www.bohemiancoding.com/sketch -->
    <title>Fill 1 Copy</title>
    <desc>Created with Sketch.</desc>
    <g id="RANGER-V2" stroke="none" stroke-width="1" fill="none" fill-rule="evenodd">
        <g id="RANGER-—-LANDING" transform="translate(-62.000000, -1029.000000)" fill="#CFD8DC">
            <g id="Group-28" transform="translate(40.000000, 1000.000000)">
                <g id="Group-4" transform="translate(22.000000, 29.000000)">
                    <path d="M65.4567318,38.422365 C72.3189458,38.422365 76.6280566,42.2897674 78.5239056,46.8574403 L86.6666667,11.4758802 L69.4222325,7.54083798 L67.9069517,14.1257671 L64.7575251,12.0756857 L44.9020534,42.3295555 L51.4576154,21.5880236 L34.5837607,16.2981969 L30.0778732,30.5562593 L36.8531858,30.5562593 L50.6165697,65.7070485 L41.1003669,65.7070485 L39.3823162,60.6251145 L27.1222267,60.6251145 L25.2613381,65.7070485 L15.8390288,65.7070485 L27.5777099,36.0370689 L35.9172477,4.48212847 L18.8086594,-5.68434189e-14 L0,71.167964 L15.9239325,75.3417348 L11.3211548,89.9021867 L28.1960084,95.1910188 L34.4099579,75.5287388 L41.3041357,80.0168355 L53.9218195,60.7912298 C52.1388425,58.2756278 51.2618375,55.2507381 51.2618375,52.4337413 C51.2618375,45.9721553 55.8676117,38.422365 65.4567318,38.422365 Z M30,53.8036193 L37.5,53.8036193 L33.7505066,41.3873995 L30,53.8036193 Z M59.1666667,52.1486186 C59.1666667,55.9794529 62.0315796,58.7701072 65.4166667,58.7701072 C68.7987869,58.7701072 71.6666667,55.9794529 71.6666667,52.1486186 C71.6666667,48.3158031 68.7987869,45.5261394 65.4166667,45.5261394 C62.0315796,45.5261394 59.1666667,48.3158031 59.1666667,52.1486186 Z M104.777066,24.4074542 L107.461255,16.010074 L90.5155579,10.7607239 L78.7215775,47.6503441 C79.3394625,49.2974314 79.648405,51.0175909 79.648405,52.6666531 C79.648405,59.0792339 75.024298,66.5760484 65.3949212,66.5760484 C61.6625347,66.5760484 58.6874585,65.4473789 56.4355886,63.6946331 L54.1666667,73.4418744 L69.3790759,76.8752812 L66.5243669,85.8039162 L83.471067,91.0522788 L88.7933038,74.4076127 L103.811119,76.1682581 L105.182302,64.8331773 C104.25046,65.6132725 103.046788,66.086267 101.72977,66.086267 C98.7877944,66.086267 96.3995084,63.7380815 96.3995084,60.8408668 C96.3995084,57.9446396 98.7877944,55.5944791 101.72977,55.5944791 C103.501174,55.5944791 105.068957,56.450609 106.037913,57.761959 L110,25.0206683 L104.777066,24.4074542 Z M84.1666667,65.3920912 L92.5,65.3920912 L92.5,30.6266756 L84.1666667,30.6266756 L84.1666667,65.3920912 Z" id="Fill-1-Copy"></path>
                </g>
            </g>
        </g>
    </g>
</svg>