<?xml version="1.0" encoding="UTF-8"?>
<svg width="120px" height="54px" viewBox="0 0 120 54" version="1.1" xmlns="http://www.w3.org/2000/svg" xmlns:xlink="http://www.w3.org/1999/xlink">
    <!-- Generator: Sketch 52.5 (67469) - http://www.bohemiancoding.com/sketch -->
    <title>Shape</title>
    <desc>Created with Sketch.</desc>
    <g id="RANGER-V2" stroke="none" stroke-width="1" fill="none" fill-rule="evenodd">
        <g id="RANGER-—-LANDING" transform="translate(-250.000000, -1050.000000)" fill="#CFD8DC">
            <g id="Group-28" transform="translate(40.000000, 1000.000000)">
                <g id="Group-10" transform="translate(210.000000, 50.000000)">
                    <path d="M101.816748,33.0342358 C101.866915,32.968671 101.886792,32.9070798 101.886792,32.8395282 C101.886792,32.8375414 101.886792,32.8345611 101.885846,32.8335677 C101.883006,32.7610491 101.855556,32.6944909 101.792137,32.6309129 L98.2586609,28.7506685 C98.1753644,28.6632488 98.0437938,28.6483477 97.9254749,28.7198729 C96.2320944,29.7897713 95.6603774,30.6272127 95.6603774,32.031889 C95.6603774,33.6153784 96.9505269,34.8591229 98.5975263,34.8591229 C99.9851707,34.8591229 100.938348,34.132943 101.807282,33.0491369 L101.816748,33.0342358 Z M99.4612267,20.8030249 C98.2097187,20.8030249 97.3584906,21.7273235 97.3584906,22.9155629 C97.3584906,23.6153601 98.0151522,24.5790981 98.5704772,25.1888925 C98.5704772,25.1888925 98.5978382,25.2131629 98.6008783,25.217208 C98.6809342,25.304177 98.8116585,25.3264249 98.9140086,25.2697939 L98.9788641,25.2394559 C100.258746,24.5275235 101.320755,23.8398615 101.320755,22.6495996 C101.320755,21.6352982 100.670173,20.8030249 99.4612267,20.8030249 Z M109.104397,36.375284 C109.191023,36.469505 109.245283,36.596415 109.245283,36.7262093 C109.245283,37.0050266 109.019675,37.2328877 108.741712,37.2328877 L106.337134,37.2328877 C106.205768,37.2328877 106.080113,37.1780856 105.982064,37.0819417 C105.982064,37.0819417 105.93542,37.0367541 105.934468,37.0338698 L104.11628,35.1340662 C104.016327,35.0292693 103.848787,35.0292693 103.759306,35.1196446 C103.759306,35.1196446 103.737412,35.1504106 103.729796,35.1561793 C102.231457,36.896384 100.674098,37.6703425 98.6788514,37.6703425 C95.7707029,37.6703425 92.8301887,35.8109193 92.8301887,32.2603248 C92.8301887,30.1672719 93.9639382,28.4549489 96.2152545,27.1627748 C96.2685627,27.11951 96.3037841,27.0579779 96.3133034,26.9877929 C96.3199669,26.9195307 96.3018802,26.8531914 96.2590433,26.8012737 C96.2590433,26.8012737 96.2371489,26.7743534 96.236197,26.7733919 C95.2128714,25.5119839 94.7169155,24.3159537 94.7169155,23.1141548 C94.7169155,20.3846293 96.7692782,18.5540493 99.4746655,18.5540493 C102.236217,18.5540493 104.092482,20.3067527 104.092482,22.9189827 C104.092482,25.1937475 102.389478,26.4830373 100.895898,27.3617927 L100.861629,27.3896744 C100.808321,27.4406307 100.779763,27.5108157 100.779763,27.5790779 C100.779763,27.6386871 100.798801,27.6973349 100.839734,27.7444454 C100.839734,27.7444454 103.482294,30.4883925 103.484198,30.489354 C103.602237,30.5720377 103.764066,30.5431946 103.839268,30.4335905 L105.476589,27.5790779 C105.568926,27.4185176 105.734562,27.3194893 105.926852,27.3194893 L107.817387,27.3185279 C108.092495,27.3185279 108.315247,27.5454275 108.315247,27.822322 C108.315247,27.861741 108.311439,27.9511548 108.252419,28.0684504 C108.252419,28.0684504 105.677446,32.4545355 105.671735,32.4612655 C105.578446,32.5949056 105.618427,32.7631574 105.719331,32.8458412 L109.104397,36.375284 Z M90.2890954,34.9056008 C90.5733112,34.9056008 90.8062907,35.1288287 90.8062907,35.405026 L90.805324,37.1463932 C90.805324,37.4225905 90.587812,37.6221715 90.2968292,37.6477102 C90.0048796,37.6770326 89.6259253,37.6694655 89.6259253,37.6694655 C86.4144805,37.6694655 82.7525442,35.9716088 82.7525442,31.2128808 L82.7544776,22.3442991 C82.7544776,22.1986334 82.6326708,22.08229 82.4837959,22.08229 L79.7779459,22.08229 C79.6387382,22.0841818 79.5082309,22.034996 79.407692,21.9413537 C79.3090866,21.8505491 79.2501166,21.7238011 79.245283,21.5875942 L79.2501166,19.7308295 C79.2501166,19.4536863 79.4830962,19.2295125 79.7682787,19.2295125 L82.4818625,19.2314042 C82.6317041,19.2314042 82.7525442,19.114115 82.7525442,18.9684493 L82.7525442,15.2899175 C82.7525442,15.0127743 82.984557,14.7857628 83.2571721,14.7857628 L85.4690281,14.6183418 L85.5279981,14.6183418 C85.8112471,14.6296924 86.0335928,14.8671086 86.0219921,15.1385765 L86.0219921,18.9561528 C86.0219921,19.1093856 86.1486325,19.2314042 86.3052412,19.2314042 L90.6158468,19.2314042 C90.901996,19.2314042 91.1320755,19.4574698 91.1320755,19.734613 L91.1320755,21.5800271 C91.1320755,21.8562244 90.901996,22.08229 90.6158468,22.08229 L86.2926738,22.08229 C86.1418654,22.08229 86.0219921,22.2005252 86.0219921,22.3442991 L86.0219921,30.6567027 C86.0219921,33.4754285 87.4198696,34.9084384 90.179856,34.9084384 C90.179856,34.9084384 90.2861952,34.9056008 90.2890954,34.9056008 Z M74.6482817,29.4654925 C74.7460882,28.7703879 74.7319815,28.524887 74.652984,28.4026179 C74.5711651,28.2726468 74.440443,28.2052544 74.2260211,28.1802229 C73.9862072,28.149415 73.6288374,28.1282345 73.6288374,28.1282345 C68.7601443,27.9145043 66.1250123,29.8669587 66.2294019,32.1891087 C66.3215657,34.3023422 68.0698563,35.1139394 69.9996532,34.7904558 C72.7401152,34.3312247 74.2222593,32.5501395 74.6482817,29.4654925 Z M78.0441404,36.4951156 C78.0441404,36.4951156 78.1132075,36.717921 78.1132075,36.8039832 C78.1132075,37.0717322 77.8918142,37.2935814 77.6183839,37.2935814 C77.6183839,37.2935814 75.52177,37.2926251 75.5198777,37.2926251 C75.4432416,37.2897564 75.3722822,37.2696752 75.3088918,37.2371628 C75.1745419,37.1673568 75.08466,37.0267886 75.0411383,36.8890891 C74.9928859,36.7303522 74.9550408,36.5132843 74.9304416,36.2216291 C74.8963811,35.8984178 74.8944888,35.5283505 74.8973272,35.3638761 C74.8973272,35.328495 74.8679973,35.2969388 74.8301523,35.2969388 C74.8083914,35.2969388 74.7894689,35.3065013 74.7762231,35.3237137 L74.7629774,35.3380574 C73.7156165,36.6213401 71.6085952,37.6703425 68.9916122,37.6703425 C66.2913702,37.6703425 63.3962264,35.8821617 63.3962264,32.3698686 C63.3962264,26.3942847 70.8545332,25.3806635 73.7960372,25.4906318 L74.3797966,25.503063 C74.5217154,25.506888 74.6418733,25.4581194 74.6418733,25.2592202 C74.6418733,24.8681154 74.7535161,21.8702829 70.9633376,21.8702829 C69.6217318,21.8702829 68.303779,22.2719064 67.1882972,22.9737912 C67.1882972,22.9737912 67.0321865,23.0780221 67.035971,23.0751534 C66.8136315,23.2358028 66.5051946,23.1870342 66.3443533,22.965185 C66.3443533,22.965185 65.2250869,21.4342345 65.2146795,21.4179783 C65.1418278,21.3089662 65.1153363,21.1750917 65.1418278,21.0459985 C65.1692655,20.9235989 65.2440094,20.8031119 65.3641673,20.7227872 C66.7928167,19.7608033 69.0095886,19.1162932 71.4420771,19.1162932 C74.5132003,19.1162932 77.7953094,20.7868557 77.7953094,25.4743756 L77.7934172,34.3521674 C77.7934172,34.3521674 77.8019323,35.060746 77.8104474,35.2338266 C77.8246393,35.4700194 77.8719456,36.0083862 78.0441404,36.4951156 Z M119.156883,34.9056008 C119.441145,34.9056008 119.673195,35.1288287 119.673195,35.405026 L119.671262,37.1463932 C119.671262,37.4225905 119.455648,37.6221715 119.165585,37.6477102 C118.873588,37.6770326 118.493605,37.6694655 118.493605,37.6694655 C115.280671,37.6694655 111.618139,35.9716088 111.618139,31.2128808 L111.618139,22.3442991 C111.618139,22.1986334 111.497279,22.08229 111.34838,22.08229 L108.643056,22.08229 C108.502859,22.0841818 108.373298,22.034996 108.273709,21.9413537 C108.175088,21.8505491 108.118042,21.7238011 108.113208,21.5875942 L108.117075,19.7308295 C108.117075,19.4536863 108.347192,19.2295125 108.631454,19.2295125 L111.34838,19.2314042 C111.495345,19.2314042 111.617172,19.114115 111.617172,18.9684493 L111.617172,15.2899175 C111.617172,15.0127743 111.850189,14.7857628 112.122849,14.7857628 C112.122849,14.7857628 114.334098,14.6183418 114.336031,14.6183418 L114.394044,14.6183418 C114.678306,14.6296924 114.899721,14.8671086 114.888118,15.1385765 L114.888118,18.9561528 C114.888118,19.1093856 115.014779,19.2314042 115.17238,19.2314042 L119.482721,19.2314042 C119.767949,19.2314042 120,19.4574698 120,19.734613 L120,21.5800271 C120,21.8562244 119.767949,22.08229 119.482721,22.08229 L115.15691,22.08229 C115.009945,22.08229 114.888118,22.2005252 114.888118,22.3442991 L114.888118,30.6567027 C114.888118,33.4754285 116.286223,34.9084384 119.047626,34.9084384 C119.047626,34.9084384 119.153015,34.9056008 119.156883,34.9056008 Z M26.8858366,0 C41.7104691,0 53.7735849,11.9805778 53.7735849,26.7061113 C53.7735849,41.4325943 41.7104691,53.4131721 26.8858366,53.4131721 C12.061204,53.4131721 0,41.4325943 0,26.7061113 C0,11.9805778 12.061204,0 26.8858366,0 Z M50.2025445,37.8970499 C51.0115039,36.2271022 51.643772,34.4575269 52.0754717,32.6101472 C50.3983375,36.4016876 44.7499481,42.9372559 26.477208,44.9744023 C23.7571179,45.2780292 9.85963502,45.8055809 3.80724352,37.2138895 C3.44144488,36.6948773 3.11575994,36.1521443 2.83018868,35.5809463 C3.12531082,36.3846086 3.45863646,37.1664478 3.83016563,37.9283615 C5.01733978,40.0841122 7.81001657,43.0492183 12.0763939,44.8197424 C30.0836196,52.301298 42.4653781,46.3900626 47.8730853,40.9940439 C48.500578,40.3687624 48.9609303,39.8981407 49.4050462,39.2586266 C49.6505037,38.9037628 49.936075,38.4293458 50.2025445,37.8970499 Z M52.0754717,21.261967 C52.0754717,20.7213969 52.0754717,20.3308784 51.8384025,19.4998241 C51.3212476,17.7915458 50.63585,16.1582932 49.7984605,14.6183418 C50.0278823,15.2829929 49.9781742,15.6167613 49.9781742,15.7956688 C49.9781742,21.1042206 40.2717211,24.5707943 33.774305,26.3771832 C18.4565774,30.6372984 5.82021692,25.6134597 3.77453937,19.8384017 C3.5575446,19.2305009 3.43996594,18.6024008 3.42562708,18.0329747 C3.41702376,17.6126382 3.42945077,17.2711749 3.46864366,16.9662627 C3.09009772,17.8694571 2.76221576,18.798622 2.48404185,19.7508717 C2.40947977,20.033661 2.30528405,20.5434513 2.28234187,20.7656429 C2.26895893,20.8858764 2.26131154,21.0128431 2.26513523,21.1542377 C2.27087078,21.3331453 2.29190111,21.4966629 2.34734471,21.7188545 C2.38653759,21.8862196 2.45058451,22.0506991 2.52419066,22.2055599 C7.32101774,32.4812002 32.6319757,32.1907159 34.8478078,31.985838 C50.4867259,30.5372641 52.0754717,22.5614512 52.0754717,21.261967 Z M40.2666915,4.69622681 C36.4365773,2.42848672 31.9781823,1.12448783 27.2224331,1.12448783 C22.2681281,1.12448783 17.6351574,2.53868381 13.6976119,4.98621915 C12.5187463,5.74019923 11.8300356,6.42264787 11.8904656,7.28199183 C12.0746334,9.92768861 18.948312,12.0098336 27.2406581,11.7913727 C35.5349225,11.5738785 41.8867925,9.14567593 41.8867925,6.49224603 C41.8867925,5.73633267 41.2268579,5.27524485 40.2350377,4.67689399 C40.245589,4.68366048 40.2580587,4.69042696 40.2666915,4.69622681 Z M9.92699728,7.30917092 C8.27392306,8.73603334 6.8044164,10.364703 5.56485227,12.1544395 C5.22380306,12.6414297 5.09433962,13.0668355 5.09433962,13.2515886 C5.09433962,15.661906 11.0148766,18.7856546 19.1275968,19.8107975 C21.8743473,20.1585123 29.151352,21.1448096 34.7820455,20.6815057 C46.1497084,19.7501606 48.6520242,15.8116034 48.6790762,13.2487463 C48.6887377,12.4803629 48.2829567,11.6683967 47.8124441,11.0307616 C47.8143764,11.033604 47.8172748,11.0354989 47.8201732,11.0383412 C46.9245568,9.88434493 45.9303935,8.80709223 44.8531417,7.81984745 C44.9227042,7.99986329 44.9507224,8.17229952 44.9594177,8.32483926 C45.0608629,10.0681506 42.1885136,12.4083565 36.3829479,14.3250515 C32.76087,15.5188408 27.9649258,16.6614677 22.0212013,16.6614677 C11.9984123,16.6614677 8.53768067,12.8887146 8.53768067,10.5305071 C8.53768067,10.3211202 8.53478223,8.89899505 9.92699728,7.30917092 Z M1.16362532,25.6416056 C1.14259209,26.0621888 1.13207547,26.4856463 1.13207547,26.9091037 C1.13207547,27.4963874 1.15310871,28.0788808 1.19230701,28.6565841 C1.21238418,28.8434035 1.24202192,29.1403985 1.28122022,29.2975185 C2.09673607,32.5922471 6.28999808,35.9367943 10.5597446,37.7043937 C16.140244,40.0142485 25.0028839,41.7751415 30.0374753,41.5931123 C45.7225315,41.0221155 50.861333,34.0101588 52.241878,30.3609523 C52.3164504,30.1664684 52.361385,29.980607 52.4158802,29.7219339 C52.4847162,29.3770365 52.582234,28.6038914 52.6099596,28.1775598 C52.6300368,27.7569766 52.6415094,27.3344772 52.6415094,26.9091037 C52.6415094,25.5984934 52.5430357,24.3108763 52.3537366,23.0520006 C52.2437901,24.9249853 50.894795,32.194657 34.2814083,35.9502069 C23.4253914,38.4018529 18.8411024,38.324251 11.3752604,35.9415845 C5.25076511,33.9842915 1.67224716,29.6146325 1.16362532,25.6416056 Z M27.2185314,52.2886843 C35.4678894,52.2886843 42.8243645,48.3229408 47.5471698,42.1682938 C44.1603394,45.6615771 37.6039181,50.02672 26.124678,50.02672 C22.6679865,50.02672 15.6244511,49.522113 10.1886792,45.7297672 C14.7334822,49.8104599 20.6965622,52.2886843 27.2185314,52.2886843 Z" id="Shape"></path>
                </g>
            </g>
        </g>
    </g>
</svg>