<?xml version="1.0" encoding="UTF-8"?>
<svg width="378px" height="676px" viewBox="0 0 378 676" version="1.1" xmlns="http://www.w3.org/2000/svg" xmlns:xlink="http://www.w3.org/1999/xlink">
    <!-- Generator: Sketch 52.5 (67469) - http://www.bohemiancoding.com/sketch -->
    <title>Group 36</title>
    <desc>Created with Sketch.</desc>
    <defs>
        <rect id="path-1" x="0" y="0" width="281" height="579" rx="27"></rect>
        <rect id="path-3" x="0" y="0" width="241" height="60" rx="3"></rect>
        <mask id="mask-4" maskContentUnits="userSpaceOnUse" maskUnits="objectBoundingBox" x="0" y="0" width="241" height="60" fill="white">
            <use xlink:href="#path-3"></use>
        </mask>
    </defs>
    <g id="RANGER-V2" stroke="none" stroke-width="1" fill="none" fill-rule="evenodd">
        <g id="Group-36">
            <rect id="Rectangle" fill="#ECEFF1" opacity="0.123767671" x="0" y="0" width="378" height="676"></rect>
            <g id="Group-19" transform="translate(189.000000, 337.500000) rotate(5.000000) translate(-189.000000, -337.500000) translate(48.000000, 33.000000)">
                <path d="M281.466513,83 L-2.27373675e-13,83 L-4.54747351e-13,27.5212067 C-4.54747351e-13,12.3216639 12.3206859,0 27.5207741,0 L57.7944573,0 L57.7944573,0.0102597084 C57.8769541,0.00346456915 57.9603966,0 58.0446497,0 C59.703144,0 61.0469592,1.34504301 61.0469592,3.00423765 L61.0469592,4.5034642 C61.0469592,14.4544301 69.1236756,22.517321 79.0868103,22.517321 L202.379702,22.517321 C212.341858,22.517321 220.419554,14.4522426 220.419554,4.5034642 L220.419554,0 L253.945738,0 C269.145042,0 281.466513,12.3207297 281.466513,27.5212067 L281.466513,83 Z" id="Combined-Shape" fill="#192226"></path>
                <rect id="Rectangle" fill="#E6EBEC" x="0" y="37" width="281" height="572" rx="27"></rect>
                <rect id="Rectangle-59-Copy-6" fill="#263238" x="0" y="23" width="281" height="80"></rect>
                <path d="M71.9197939,67.9772317 C71.6947498,67.8828066 71.5170968,67.7542062 71.3706154,67.5982656 C71.5404122,66.2644165 71.3837937,65.100178 71.5155762,63.7921502 C72.0320625,58.6686404 75.2397006,60.2862711 78.1330881,59.4751774 C79.9309063,58.9739397 81.7310054,57.9400737 82.1762784,55.8072821 C80.2099305,53.5033608 77.9914218,51.4761329 75.5792942,49.7547105 C67.7473553,44.1628726 57.5053162,41.9422378 48.2060293,43.4705064 C51.5900533,49.4018189 58.8685054,52.1031863 65.3980778,49.6109211 C59.998034,52.6661926 53.4020635,51.7586486 49.0263757,47.7672272 C48.3976208,48.0269594 47.777736,48.3031465 47.1684951,48.5978135 C52.0986833,53.3256493 59.8454704,53.852202 65.3980778,49.6109211 C65.3712144,49.6534504 64.9031329,50.3929025 64.2979468,53.4696918 C63.0110395,60.0078057 59.2737368,59.4954294 54.6724981,57.8436234 C45.0964678,54.4025508 39.8112269,57.6142692 35.0277734,51.0313477 C33.6329057,51.8110508 32.7732779,53.2853984 32.7824013,54.8812581 C32.7912713,56.5191408 33.7033587,57.9289351 35.0006566,58.6686404 C36.7391727,57.4514936 38.7280756,56.6965992 40.7871781,56.4371201 C36.8116531,57.6530012 35.1304117,59.5108716 34.2890308,62.1709754 C33.2758257,65.3740867 33.7137492,68.6670664 28.975406,69.5351189 C26.455318,69.6677697 26.5047364,71.3512194 25.613937,73.8908237 C24.4618533,77.1812719 22.9610527,78.4870213 20,81.6088714 C21.2060638,83.069802 22.4818204,83.265234 23.7755703,82.7234923 C26.4330163,81.6111497 28.4781802,78.1791905 30.4176647,75.9383037 C32.5662273,73.4548988 37.732357,74.5178771 41.6518744,72.0949752 C44.3301015,70.4403845 45.6605985,68.2326604 43.8876162,64.4397088 C45.0379259,65.6943219 45.7130581,67.3084085 45.8055593,69.0055284 C50.3069474,68.4227763 56.3537394,73.9095568 61.851353,74.8368465 C61.2844345,74.132076 60.834093,73.366043 60.5036229,72.5754545 C59.8634637,71.0438949 59.6716188,69.6601752 59.8054287,68.4602425 C60.3168464,71.4790604 63.3600098,75.3517543 68.2471153,75.711481 C69.4924605,75.8031214 70.8462729,75.6646481 72.2885316,75.229989 C73.9918212,74.7176127 75.546602,74.0746108 77.436668,74.4163638 C78.8360974,74.6702736 80.1118539,75.3692217 80.9240906,76.5671291 C82.1324353,78.351839 84.812183,78.7292862 86,76.5448519 C83.2574022,69.4946148 75.8626267,69.0508423 72.7031398,68.22861 C72.3995331,68.1496271 72.1352077,68.0681126 71.9197939,67.9772317 Z" id="Logo-Copy-2" fill="#FFFFFF"></path>
                <text id="RANGER-Studio-Copy-3" font-family="Roboto-Light, Roboto" font-size="24" font-weight="300" fill="#263238">
                    <tspan x="20" y="165">RANGER Studio</tspan>
                </text>
                <text id="Cinemo" font-family="Roboto-Light, Roboto" font-size="24" font-weight="300" fill="#263238">
                    <tspan x="20" y="533">Cinemo</tspan>
                </text>
                <g id="Group-2-Copy-2" transform="translate(0.000000, 30.000000)">
                    <mask id="mask-2" fill="white">
                        <use xlink:href="#path-1"></use>
                    </mask>
                    <g id="Mask"></g>
                    <g mask="url(#mask-2)">
                        <g transform="translate(20.000000, 538.000000)">
                            <rect id="Rectangle-19-Copy-18" fill="#FFFFFF" x="0" y="0" width="241" height="60" rx="3"></rect>
                            <g id="Group-4-Copy-4" stroke-width="1" fill="none" transform="translate(60.000000, 10.000000)" font-family="Roboto-Regular, Roboto" font-weight="normal">
                                <text id="Basic-•-12w-ago" font-size="14" line-spacing="19" fill="#90A4AE">
                                    <tspan x="0" y="34">Basic • 12w ago</tspan>
                                </text>
                                <text id="Digital-Signage" font-size="16" fill="#37474F">
                                    <tspan x="0" y="15">Digital Signage</tspan>
                                </text>
                            </g>
                            <circle id="Oval-2-Copy-8" fill-opacity="0.2" fill="#4CAF50" cx="30" cy="30" r="20"></circle>
                            <path d="M37.3499991,27.0399995 C36.6699989,23.59 33.6399994,21 29.9999993,21 C27.1099991,21 24.5999995,22.6399998 23.3499996,25.0399997 C20.3399998,25.3599994 18,27.9099994 18,30.9999994 C18,34.3099986 20.6899999,36.999999 23.9999996,36.999999 L36.9999989,36.999999 C39.7599989,36.999999 41.9999986,34.7599994 41.9999986,31.9999993 C41.9999986,29.3599991 39.9499994,27.2199998 37.3499991,27.0399995 Z M27.9999994,33.9999992 L24.4999996,30.4999994 L25.9099994,29.0899996 L27.9999994,31.1699994 L33.1799994,25.9999997 L34.5899991,27.4099994 L27.9999994,33.9999992 Z" id="Fill-2-Copy-12" fill="#4CAF50"></path>
                        </g>
                    </g>
                </g>
                <g id="Group-3" transform="translate(20.000000, 411.000000)">
                    <text id="On-Demand-Plans" font-family="Roboto-Regular, Roboto" font-size="14" font-weight="normal" line-spacing="19" fill="#90A4AE">
                        <tspan x="60" y="44">On-Demand Plans</tspan>
                    </text>
                    <text id="Create-Project" font-family="Roboto-Regular, Roboto" font-size="16" font-weight="normal" fill="#90A4AE">
                        <tspan x="60" y="25">Create Project</tspan>
                    </text>
                    <circle id="Oval-2-Copy-6" stroke="#90A4AE" stroke-width="2" cx="30" cy="30" r="19"></circle>
                    <path d="M37.3499991,27.0399995 C36.6699989,23.59 33.6399994,21 29.9999993,21 C27.1099991,21 24.5999995,22.6399998 23.3499996,25.0399997 C20.3399998,25.3599994 18,27.9099994 18,30.9999994 C18,34.3099986 20.6899999,36.999999 23.9999996,36.999999 L36.9999989,36.999999 C39.7599989,36.999999 41.9999986,34.7599994 41.9999986,31.9999993 C41.9999986,29.3599991 39.9499994,27.2199998 37.3499991,27.0399995 Z M36.9999989,34.9999992 L23.9999996,34.9999992 C21.7899997,34.9999992 19.9999999,33.2099983 19.9999999,30.9999994 C19.9999999,28.7900004 21.7899997,26.9999996 23.9999996,26.9999996 L24.7099996,26.9999996 C25.3699994,24.6899998 27.479999,22.9999999 29.9999993,22.9999999 C33.039999,22.9999999 35.499999,25.4599998 35.499999,28.4999995 L35.499999,28.9999995 L36.9999989,28.9999995 C38.6599986,28.9999995 39.9999987,30.3399995 39.9999987,31.9999993 C39.9999987,33.659999 38.6599986,34.9999992 36.9999989,34.9999992 Z" id="Fill-2-Copy-11" fill="#90A4AE"></path>
                    <use id="Rectangle-19-Copy-15" stroke="#CFD8DC" mask="url(#mask-4)" stroke-width="4" stroke-linejoin="round" stroke-dasharray="4,4" xlink:href="#path-3"></use>
                </g>
                <text id="Member-•-$25.00-Cred" font-family="Roboto-Regular, Roboto" font-size="14" font-weight="normal" line-spacing="19" fill="#90A4AE">
                    <tspan x="20" y="552">Member • $25.00 Credit</tspan>
                </text>
                <g id="Group-2" transform="translate(20.000000, 201.000000)">
                    <rect id="Rectangle-19-Copy-18" fill="#FFFFFF" x="0" y="0" width="241" height="60" rx="3"></rect>
                    <g id="Group-4-Copy-4" transform="translate(60.000000, 10.000000)" font-family="Roboto-Regular, Roboto" font-weight="normal">
                        <text id="Standard-•-5w-ago" font-size="14" line-spacing="19" fill="#90A4AE">
                            <tspan x="0" y="34">Standard • 5w ago</tspan>
                        </text>
                        <text id="Production" font-size="16" fill="#37474F">
                            <tspan x="0" y="15">Production</tspan>
                        </text>
                    </g>
                    <circle id="Oval-2-Copy-8" fill-opacity="0.2" fill="#4CAF50" cx="30" cy="30" r="20"></circle>
                    <path d="M37.3499991,27.0399995 C36.6699989,23.59 33.6399994,21 29.9999993,21 C27.1099991,21 24.5999995,22.6399998 23.3499996,25.0399997 C20.3399998,25.3599994 18,27.9099994 18,30.9999994 C18,34.3099986 20.6899999,36.999999 23.9999996,36.999999 L36.9999989,36.999999 C39.7599989,36.999999 41.9999986,34.7599994 41.9999986,31.9999993 C41.9999986,29.3599991 39.9499994,27.2199998 37.3499991,27.0399995 Z M27.9999994,33.9999992 L24.4999996,30.4999994 L25.9099994,29.0899996 L27.9999994,31.1699994 L33.1799994,25.9999997 L34.5899991,27.4099994 L27.9999994,33.9999992 Z" id="Fill-2-Copy-12" fill="#4CAF50"></path>
                </g>
                <g id="Group-2-Copy" transform="translate(20.000000, 271.000000)">
                    <rect id="Rectangle-19-Copy-18" fill="#FFFFFF" x="0" y="0" width="241" height="60" rx="3"></rect>
                    <g id="Group-4-Copy-4" transform="translate(60.000000, 10.000000)" font-family="Roboto-Regular, Roboto" font-weight="normal">
                        <text id="Standard-•-9w-ago" font-size="14" line-spacing="19" fill="#90A4AE">
                            <tspan x="0" y="34">Standard • 9w ago</tspan>
                        </text>
                        <text id="Staging" font-size="16" fill="#37474F">
                            <tspan x="0" y="15">Staging</tspan>
                        </text>
                    </g>
                    <circle id="Oval-2-Copy-8" fill-opacity="0.2" fill="#4CAF50" cx="30" cy="30" r="20"></circle>
                    <path d="M37.3499991,27.0399995 C36.6699989,23.59 33.6399994,21 29.9999993,21 C27.1099991,21 24.5999995,22.6399998 23.3499996,25.0399997 C20.3399998,25.3599994 18,27.9099994 18,30.9999994 C18,34.3099986 20.6899999,36.999999 23.9999996,36.999999 L36.9999989,36.999999 C39.7599989,36.999999 41.9999986,34.7599994 41.9999986,31.9999993 C41.9999986,29.3599991 39.9499994,27.2199998 37.3499991,27.0399995 Z M27.9999994,33.9999992 L24.4999996,30.4999994 L25.9099994,29.0899996 L27.9999994,31.1699994 L33.1799994,25.9999997 L34.5899991,27.4099994 L27.9999994,33.9999992 Z" id="Fill-2-Copy-12" fill="#4CAF50"></path>
                </g>
                <g id="Group-2-Copy-5" transform="translate(20.000000, 341.000000)">
                    <rect id="Rectangle-19-Copy-18" fill="#FFFFFF" x="0" y="0" width="241" height="60" rx="3"></rect>
                    <g id="Group-4-Copy-4" transform="translate(60.000000, 10.000000)" font-family="Roboto-Regular, Roboto" font-weight="normal">
                        <text id="Basic-•-9w-ago" font-size="14" line-spacing="19" fill="#90A4AE">
                            <tspan x="0" y="34">Basic • 9w ago</tspan>
                        </text>
                        <text id="Development" font-size="16" fill="#37474F">
                            <tspan x="0" y="15">Development</tspan>
                        </text>
                    </g>
                    <circle id="Oval-2-Copy-8" fill-opacity="0.2" fill="#4CAF50" cx="30" cy="30" r="20"></circle>
                    <path d="M37.3499991,27.0399995 C36.6699989,23.59 33.6399994,21 29.9999993,21 C27.1099991,21 24.5999995,22.6399998 23.3499996,25.0399997 C20.3399998,25.3599994 18,27.9099994 18,30.9999994 C18,34.3099986 20.6899999,36.999999 23.9999996,36.999999 L36.9999989,36.999999 C39.7599989,36.999999 41.9999986,34.7599994 41.9999986,31.9999993 C41.9999986,29.3599991 39.9499994,27.2199998 37.3499991,27.0399995 Z M27.9999994,33.9999992 L24.4999996,30.4999994 L25.9099994,29.0899996 L27.9999994,31.1699994 L33.1799994,25.9999997 L34.5899991,27.4099994 L27.9999994,33.9999992 Z" id="Fill-2-Copy-12" fill="#4CAF50"></path>
                </g>
                <text id="Owner-•-$10.00-Balan" font-family="Roboto-Regular, Roboto" font-size="14" font-weight="normal" line-spacing="19" fill="#90A4AE">
                    <tspan x="20" y="184">Owner • $10.00 Balance</tspan>
                </text>
                <path d="M243,69 L261,69 L261,67 L243,67 L243,69 Z M243,64 L261,64 L261,62 L243,62 L243,64 Z M243,57 L243,59 L261,59 L261,57 L243,57 Z" id="Shape" fill="#FFFFFF" fill-rule="nonzero"></path>
            </g>
        </g>
    </g>
</svg>