<svg width="1120" height="633" xmlns="http://www.w3.org/2000/svg">
  <g fill="none" fill-rule="evenodd">
    <path fill="#000000" opacity="0" d="M0 0h1120v633H0z"/>
    <path d="M619.892 332.595c-.922-.23-1.69-.461-2.381-.769a5.473 5.473 0 0 1-1.69-1.152c.46-4.073 0-7.607.383-11.602 1.537-15.52 11.295-10.603 20.054-13.139 5.455-1.537 10.91-4.687 12.294-11.141-5.993-6.992-12.678-13.139-19.977-18.363-23.742-16.904-54.783-23.665-82.981-18.978a42.61 42.61 0 0 0 18.65 17.287s-7.642 0-14.192-4.892c-1.92.768-5.765 2.28-7.609 3.202 14.983 14.368 38.418 15.981 55.244 3.073-.077.154-1.536 2.382-3.304 11.68-3.918 19.822-15.213 18.286-29.197 13.291-29.043-10.526-45.025-.768-59.546-20.745a13.404 13.404 0 0 0-6.839 11.679c0 4.994 2.766 9.22 6.762 11.525 2.181-2.893 3.159-3.717 6.963-3.717-5.887 3.338-6.579 6.253-9.115 14.32-3.073 9.758-1.767 19.747-16.135 22.36-7.606.383-7.453 5.531-10.219 13.215-3.457 9.988-8.067 13.984-17.057 23.434 3.688 4.457 7.53 4.994 11.448 3.38 8.068-3.38 14.292-13.83 20.13-20.59 6.532-7.53 22.206-4.303 34.039-11.68 8.144-4.994 12.14-11.755 6.761-23.204 3.458 3.842 5.532 8.683 5.84 13.83 13.676-1.767 31.963 14.906 48.636 17.673-1.69-2.152-3.074-4.457-4.073-6.839-1.92-4.61-2.535-8.836-2.151-12.524 1.537 9.144 10.757 20.9 25.586 21.975 3.765.307 7.914-.154 12.217-1.46 5.147-1.537 9.911-3.534 15.597-2.459 4.226.769 8.144 2.92 10.603 6.531 3.688 5.379 11.756 6.531 15.367-.077-8.144-21.283-30.58-22.666-40.108-25.124z" fill="#FFF"/>
  </g>
</svg>
