<svg width="378" height="676" xmlns="http://www.w3.org/2000/svg">
  <g fill="none" fill-rule="evenodd">
    <path fill="#000000" opacity=".0" d="M0 0h378v676H0z"/>
    <path d="M231.795 333.228c-.63-.217-1.15-.425-1.614-.681a3.831 3.831 0 0 1-1.109-.907c.57-2.812.464-5.304.976-8.067 2.018-10.73 8.523-6.705 14.786-7.939 3.898-.739 7.894-2.603 9.252-7.019-3.753-5.241-8.039-9.935-12.81-14.024-15.525-13.236-36.759-19.845-56.708-18.297a29.826 29.826 0 0 0 11.95 13.193s-5.328-.466-9.597-4.277c-1.387.418-4.16 1.238-5.501 1.769 9.57 10.933 25.814 13.488 38.336 5.513-.063.103-1.217 1.567-3.017 7.943-3.942 13.584-11.724 11.823-21.171 7.488-19.61-9.113-31.35-3.283-40.258-18.1a9.383 9.383 0 0 0-5.481 7.727c-.305 3.483 1.366 6.599 4.011 8.45 1.698-1.885 2.43-2.4 5.083-2.167-4.309 1.968-4.97 3.958-7.23 9.43-2.738 6.616-2.437 13.661-12.615 14.607-5.328-.197-5.535 3.403-7.933 8.592-3.02 6.754-6.479 9.259-13.324 15.3 2.3 3.333 4.946 3.943 7.777 3.057 5.832-1.865 10.81-8.773 15.294-13.131 5.014-4.853 15.747-1.646 24.448-6.068 5.984-2.986 9.183-7.457 6.13-15.768 2.178 2.89 3.329 6.392 3.23 10 9.644-.398 21.379 12.345 32.837 15.29-1.048-1.603-1.872-3.294-2.423-5.016-1.058-3.332-1.229-6.317-.736-8.865.514 6.47 6.226 15.23 16.501 16.885 2.607.444 5.528.375 8.609-.273 3.683-.757 7.127-1.86 11.026-.763 2.9.794 5.502 2.533 6.996 5.201 2.243 3.976 7.799 5.272 10.72.884-4.38-15.338-19.941-17.671-26.435-19.967z" fill="#FFF"/>
  </g>
</svg>
