<?xml version="1.0" encoding="UTF-8"?>
<svg width="120px" height="38px" viewBox="0 0 120 38" version="1.1" xmlns="http://www.w3.org/2000/svg" xmlns:xlink="http://www.w3.org/1999/xlink">
    <!-- Generator: Sketch 52.5 (67469) - http://www.bohemiancoding.com/sketch -->
    <title>Shape Copy 2</title>
    <desc>Created with Sketch.</desc>
    <g id="RANGER-V2" stroke="none" stroke-width="1" fill="none" fill-rule="evenodd">
        <g id="RANGER-—-LANDING" transform="translate(-443.000000, -1058.000000)" fill="#CFD8DC">
            <g id="Group-28" transform="translate(40.000000, 1000.000000)">
                <g id="Group-11" transform="translate(403.000000, 58.000000)">
                    <path d="M15.0580306,13.3163958 L28.7141635,13.3163958 C28.8625998,14.0318065 28.9285714,14.8935513 28.9285714,15.8203334 C28.9285714,18.8120512 28.0874328,22.535439 25.4155807,25.1694514 C22.8097003,27.8359824 19.4781316,29.2668039 15.0580306,29.2668039 C6.8775452,29.2668039 0,22.6980324 0,14.633402 C0,6.56877154 6.8775452,1.13686838e-13 15.0580306,1.13686838e-13 C19.5770891,1.13686838e-13 22.8097003,1.75600823 25.2176657,4.06483388 L22.3643916,6.87769892 C20.6326356,5.2680247 18.2741489,4.01605587 15.0580306,4.01605587 C9.0875957,4.01605587 4.42010099,8.76378184 4.42010099,14.6496613 C4.42010099,20.5355407 9.0875957,25.2832667 15.0580306,25.2832667 C18.9173725,25.2832667 21.127423,23.7548892 22.5458137,22.3565863 C23.7003176,21.2021735 24.4589917,19.5599806 24.7558641,17.3161923 L15.0580306,17.3161923 L15.0580306,13.3163958 Z M40.7142857,10.1103504 C46.0236462,10.1103504 50.3571429,14.0211391 50.3571429,19.4225153 C50.3571429,24.7918359 46.0236462,28.7346802 40.7142857,28.7346802 C35.4049253,28.7346802 31.0714286,24.775808 31.0714286,19.4225153 C31.0714286,14.0211391 35.4049253,10.1103504 40.7142857,10.1103504 Z M40.7142857,25.0098142 C43.5888502,25.0098142 46.0714286,22.708228 46.0714286,19.4225153 C46.0714286,16.1050566 43.5888502,13.8352164 40.7142857,13.8352164 C37.8397213,13.8352164 35.3571429,16.1050566 35.3571429,19.4225153 C35.3571429,22.708228 37.8397213,25.0098142 40.7142857,25.0098142 Z M87.6,12.2103386 L87.6,10.5949631 L91.6071429,10.5949631 L91.6071429,27.4756375 C91.6071429,34.4055986 87.4178571,37.2486595 82.4668831,37.2486595 C77.7974026,37.2486595 74.999026,34.1955997 73.9392857,31.7079214 L77.6152597,30.2217759 C78.2775974,31.7563827 79.8837662,33.5656033 82.4668831,33.5656033 C85.6295455,33.5656033 87.6,31.6433064 87.6,28.0571727 L87.6,26.7487185 L87.450974,26.7487185 C86.5071429,27.8794814 84.6857143,28.8810142 82.3840909,28.8810142 C77.5821429,28.8810142 73.3928571,24.7618066 73.3928571,19.4956823 C73.3928571,14.1972506 77.5821429,10.1103504 82.3840909,10.1103504 C84.6857143,10.1103504 86.5071429,11.1118833 87.450974,12.2103386 L87.6,12.2103386 Z M82.7678125,25.0098142 C85.6243543,25.0098142 87.8734705,22.676482 87.8570536,19.4542613 C87.8570536,16.2161676 85.6243543,13.8352164 82.7678125,13.8352164 C79.8784369,13.8352164 77.6785714,16.1685486 77.6785714,19.4225153 C77.6785714,22.628863 79.8784369,25.0098142 82.7678125,25.0098142 Z M62.1428571,10.1103504 C67.4522176,10.1103504 71.7857143,14.0211391 71.7857143,19.4225153 C71.7857143,24.7918359 67.4522176,28.7346802 62.1428571,28.7346802 C56.8334967,28.7346802 52.5,24.775808 52.5,19.4225153 C52.5,14.0211391 56.8334967,10.1103504 62.1428571,10.1103504 Z M62.1428571,25.0098142 C65.0174216,25.0098142 67.5,22.708228 67.5,19.4225153 C67.5,16.1050566 65.0174216,13.8352164 62.1428571,13.8352164 C59.2682927,13.8352164 56.7857143,16.1050566 56.7857143,19.4225153 C56.7857143,22.708228 59.2682927,25.0098142 62.1428571,25.0098142 Z M94.8214286,0.532123707 L99.1071429,0.532123707 L99.1071429,28.7346802 L94.8214286,28.7346802 L94.8214286,0.532123707 Z M111.829232,25.0643088 C113.97509,25.0643088 115.460684,24.0385282 116.55012,22.4998572 L119.818427,24.6155298 C118.762005,26.1221451 116.219988,28.7346802 111.829232,28.7346802 C106.382053,28.7346802 102.321429,24.6475855 102.321429,19.4225153 C102.321429,13.8768887 106.431573,10.1103504 111.367047,10.1103504 C116.335534,10.1103504 118.778511,13.9570278 119.570828,16.0406448 L120,17.0984811 L107.17437,22.2434121 C108.164766,24.1186673 109.683373,25.0643088 111.829232,25.0643088 Z M111.586735,13.3030927 C109.431633,13.3030927 106.607143,15.0166853 106.607143,19.1564535 L115.178571,15.4747744 C114.705102,14.2023046 113.268367,13.3030927 111.586735,13.3030927 Z" id="Shape-Copy-2"></path>
                </g>
            </g>
        </g>
    </g>
</svg>