<?xml version="1.0" encoding="UTF-8"?>
<svg width="120px" height="66px" viewBox="0 0 120 66" version="1.1" xmlns="http://www.w3.org/2000/svg" xmlns:xlink="http://www.w3.org/1999/xlink">
    <!-- Generator: Sketch 52.5 (67469) - http://www.bohemiancoding.com/sketch -->
    <title>Shape</title>
    <desc>Created with Sketch.</desc>
    <g id="RANGER-V2" stroke="none" stroke-width="1" fill="none" fill-rule="evenodd">
        <g id="RANGER-—-LANDING" transform="translate(-636.000000, -1044.000000)" fill="#CFD8DC">
            <g id="Group-28" transform="translate(40.000000, 1000.000000)">
                <path d="M629.672863,79.8029803 C628.820248,79.8957756 628.190231,79.3973325 627.815188,78.3089766 L627.137953,75.1247733 L625.732218,65.8081286 L618.770996,67.5434001 L620.814843,79.8507036 L620.907929,80.5890888 C620.907929,81.2386557 619.631705,81.6761191 617.065767,81.9173868 L615.052948,82.0539284 L614.300165,81.6761191 C613.915679,81.4348514 613.577061,80.5148526 613.231698,78.9598691 L611.726132,69.3263948 L605.434051,70.9105426 C602.23,71.8782646 599.718024,72.315728 597.988512,72.1791864 C597.988512,72.1791864 596.206385,72.2547483 596.014816,70.7156725 C595.831342,69.1752711 597.412457,68.2539467 597.412457,68.2539467 C600.362882,66.5478395 604.804033,64.9172941 610.765591,63.3623105 L610.896451,63.3318207 C610.466097,60.4631213 609.859013,57.2921745 609.137259,53.7288363 C608.96053,52.9891255 608.584139,52.5662442 608.045858,52.4005384 L607.85429,52.3249765 L607.569635,52.1884349 C607.369972,52.0373112 607.438775,51.8119512 607.800327,51.5401937 C608.937596,50.634777 610.382454,49.8791584 612.179421,49.2441737 C613.662053,48.7152407 614.814162,48.4448087 615.627654,48.4448087 C616.558515,48.4448087 617.003709,49.09305 616.943001,50.4372557 L617.388195,56.4318298 C617.610792,58.9836996 617.911636,61.8219091 618.37167,64.9623661 L625.3936,63.1806969 L624.380446,52.4310282 C624.280614,50.6493591 624.087697,49.5914931 623.827325,49.3197355 L623.480613,48.8663644 L623.249922,48.6860764 C623.156836,48.5654426 623.249922,48.4448087 623.542671,48.2777773 C624.909283,47.5089022 626.475558,47.0409489 628.244194,46.8593353 C629.096808,46.7532836 629.72008,46.8593353 630.018226,47.1310929 C630.379778,47.3431964 630.494449,47.71968 630.402712,48.2777773 C630.095123,49.9242304 629.996641,52.8075119 630.095123,56.8692932 L630.402712,62.0485947 C637.054996,60.704389 642.288054,59.9660038 646.16799,59.8135544 L648.596323,59.9050241 C648.971366,59.9792603 649.172378,60.1462918 649.172378,60.3716517 C649.172378,60.5532653 649.079292,60.6752248 648.872884,60.749461 C648.035109,61.1126882 647.174399,61.5806414 646.315039,62.1997184 C643.448257,64.3883611 641.435439,66.8792511 640.213178,69.6578065 C639.545386,71.0020122 639.3066,72.0890425 639.391592,72.9652949 C639.529197,74.0655816 640.304915,73.9449478 641.734933,72.6471397 C643.739657,70.8654706 645.307281,68.2393646 646.382493,64.6455365 C646.596996,63.9204078 646.86816,63.4524545 647.074568,63.1952791 C647.343034,63.000409 647.820606,62.6822538 648.542361,62.2593725 C649.341012,61.8219091 650.108635,61.5050796 650.793965,61.3539559 C651.745062,61.1418524 652.21454,61.4440998 652.21454,62.3349344 L651.692448,65.2937777 C651.337642,67.438674 651.169008,69.0838015 651.268839,70.2927912 C651.353831,72.2255841 652.029717,73.4783202 653.20476,74.0059275 C653.458386,74.1424691 653.551472,74.3240827 653.543378,74.4752064 C653.543378,74.5958403 653.436801,74.65682 653.266818,74.701892 C649.779461,75.7875966 647.496828,74.7164741 646.382493,71.5614351 C644.408798,74.0655816 642.250279,75.5317468 639.867815,75.9692102 C638.784508,76.1813137 637.817222,76.1044262 636.948419,75.7279425 C636.064775,75.320969 635.388889,74.5507683 634.951789,73.5233921 C633.736274,70.7594189 635.013847,67.483746 638.730546,63.6937222 L630.725141,64.8563143 C631.394281,69.86991 632.28467,74.0059275 633.430034,77.2670183 L633.736274,77.992147 C633.868483,78.3407921 633.81452,78.5820598 633.583828,78.7782555 C632.916037,79.2912807 631.616878,79.6531823 629.672863,79.8029803 Z M610.340533,64.487778 C606.958694,65.3573249 604.01349,66.4618844 601.495188,67.867554 C600.608011,68.3684248 600.172767,68.753258 600.213093,69.002959 C600.258981,69.4054182 600.806861,69.4729843 601.827532,69.2218145 C603.165249,69.0528992 606.111843,68.2847015 610.736842,67.0141642 L610.396155,64.4363689 L610.340533,64.487778 Z M664.187062,45.5366926 C665.160138,44.907752 666.848127,44.4002806 669.276183,44.0615164 C670.814569,43.8158787 671.840601,44.3085038 672.352956,45.4921539 C672.550219,45.9537369 672.683934,46.5367892 672.836184,47.3519826 L673.197612,49.303588 C673.439888,50.3954614 673.815879,53.3323171 674.31367,58.127652 L674.463273,58.2504708 C675.580655,57.4042353 676.696713,56.7442525 677.841898,56.3447538 C679.680813,55.6834213 681.339675,55.5916446 682.786712,56.0680739 C684.748751,56.773945 685.502057,58.2504708 684.943366,60.4490637 C684.506475,62.3088924 683.329516,64.3536242 681.370125,66.4752866 C679.409411,68.6414877 677.540046,70.2867207 675.686568,71.4703708 C673.529914,72.8537702 671.900178,73.2397724 670.814569,72.5770904 C670.332665,72.3624947 670.061263,71.7173582 670.061263,70.7483038 C669.698511,62.061905 668.492426,54.6846744 666.411235,48.6732978 C665.937275,47.1535829 665.288557,46.2466127 664.406831,45.9537369 C664.03746,45.8606105 663.984503,45.6919033 664.187062,45.5366926 Z M678.837852,65.3771356 C679.651129,63.5044313 679.730917,62.0480241 679.04502,61.0104447 C678.263938,59.8146977 676.780162,59.9450278 674.596491,61.4722941 L675.504954,69.3692856 C676.92434,68.6062851 678.007777,67.2650239 678.837852,65.3771356 Z M715.22374,60.4514651 L714.69918,61.5096225 C711.995983,66.1496567 708.242347,68.7649736 703.439592,69.2954195 C700.528153,69.6686456 698.876711,68.6255265 698.545896,66.2111775 C698.365331,65.2938343 698.470771,64.2657536 698.740958,63.2075962 C699.026962,62.131666 699.446083,61.2608051 699.927149,60.5909122 C701.999029,56.2625833 705.330908,53.6308609 709.834479,52.6957449 C711.695481,52.2760365 713.166358,52.4004452 714.202298,53.1318589 C714.202298,53.1318589 715.343677,53.7867135 715.839241,55.514764 C716.424428,57.6474845 715.22374,60.4514651 715.22374,60.4514651 Z M709.373211,55.2753684 C708.911022,55.3189479 708.477105,55.544769 708.041959,55.9211375 L706.825025,57.2153168 C706.278019,57.9376801 705.732243,58.8990705 705.214739,60.102129 C704.515309,61.6670295 704.123186,63.0642149 704.080163,64.3148148 C704.023619,65.5178733 704.206774,66.2243895 704.639461,66.4792636 C704.906203,66.600758 705.243011,66.5703844 705.732243,66.3604104 C706.278019,66.0883687 706.908612,65.4571261 707.678108,64.4349885 C708.742618,63.0206354 709.512113,61.3804612 709.947259,59.5461601 C710.674961,56.6884009 710.506557,55.2595213 709.373211,55.2753684 Z M693.621065,68.5530903 L693.590146,69.6146079 C693.528309,70.2170156 692.825245,70.6761255 691.476922,71.023936 L687.985801,71.4830458 C686.731578,71.4997407 686.363243,70.9140279 686.915746,69.678605 C687.894389,66.096157 688.368924,62.9909049 688.354137,60.3447627 C688.368924,59.2039443 687.985801,58.3803291 687.129488,57.8892207 C686.853909,57.7306191 686.271831,57.6040161 685.414174,57.4287196 C685.123808,57.3355064 685.047183,57.1449062 685.199088,56.8430067 C685.322763,56.6051043 685.689754,56.3518983 686.271831,55.9873929 C687.007158,55.5602816 687.680647,55.3376829 688.261381,55.2903807 C690.053319,55.194385 691.385511,55.8774848 692.243168,57.4287196 L692.243168,57.4607181 L692.335924,57.5400189 L692.396417,57.4607181 C695.015094,53.894965 697.710395,51.9778336 700.46619,51.7566261 C701.858874,51.6940202 702.594201,52.2324309 702.654694,53.3092521 C702.715187,54.1008688 702.547151,54.7992723 702.134454,55.3696815 C701.658575,56.2559026 701.185385,56.8110081 700.663801,56.9543061 C700.54147,57.0336069 700.404353,56.9543061 700.174479,56.7637059 C699.50099,56.0193915 698.795237,55.7661854 698.000762,55.9873929 C696.009868,56.5578021 694.418229,58.046431 693.207024,60.5339716 L693.192236,60.7092681 C693.498735,62.7696974 693.650639,65.3838411 693.621065,68.5530903 Z M685.662367,92.9000228 C684.508576,97.5627418 682.138847,101.290762 678.64505,104.159506 C675.368771,106.814104 671.42913,108.500333 666.812616,109.191256 C662.371738,109.849855 657.840341,109.573755 653.217072,108.317164 C640.536184,104.819452 633.897159,98.5136025 633.218935,89.3417029 C633.166245,89.0198109 633.190563,88.8204804 633.321615,88.7437112 L633.643163,88.8043184 C640.914476,91.3040315 649.162592,91.3040315 658.379407,88.8043184 C664.234827,87.193512 669.336364,84.8769676 673.613766,81.8708472 C676.983267,79.4923487 680.077155,76.5023902 682.876516,72.9885156 L683.276425,72.5144321 C683.369647,72.2221704 683.569601,72.1305861 683.80063,72.2221704 C684.015445,72.3137547 684.015445,72.5588775 683.830352,72.9265615 C682.800858,75.4895755 680.600009,78.4041116 677.153499,81.6715166 C672.920681,85.6298445 668.243371,88.6211498 663.056717,90.6750627 C658.44831,92.4865466 653.356229,93.5599686 647.861538,93.9424678 C644.9622,94.1579603 642.38441,94.1417983 640.144381,93.9128376 L640.060616,93.9586297 C640.229497,94.6347374 640.62265,95.3849207 641.237375,96.260359 C642.330369,97.7782343 643.946216,99.2812945 646.147065,100.754725 C648.823481,102.609307 651.786318,103.991153 655.132851,104.987805 C661.280096,106.690196 667.243599,106.368304 673.059839,104.036945 C679.031448,101.5507 682.784645,96.8583507 684.324834,89.9706716 C684.908485,87.3470504 685.1233,84.5550757 685.03143,81.5947474 C684.939559,79.2014338 684.662595,76.9306816 684.139741,74.8444448 C684.046519,74.4619456 684.139741,74.262615 684.508576,74.2154761 C684.662595,74.184499 684.754466,74.2154761 684.846337,74.3690145 L685.077365,75.0760992 C686.786434,81.8398701 686.986389,87.7605266 685.662367,92.9000228 Z M656.802624,58.4380777 C659.254603,56.3566643 661.407305,55.0944739 663.328985,54.6675173 C665.293982,54.2592401 666.505533,55.139838 666.908508,57.3133139 L667.043708,58.4380777 L666.908508,58.5301402 C665.555194,58.7569609 664.36727,59.0464908 663.349987,59.426749 C660.172127,60.7636569 658.476218,62.1619397 658.251759,63.7109916 C658.154625,64.1819781 658.192691,64.6542988 658.34233,65.0785869 C658.565476,65.6416359 658.939574,66.0058832 659.461998,66.2180273 C660.232507,66.506223 662.049178,67.007897 665.002579,67.7377259 C666.803498,68.1940358 667.83522,68.8624897 667.984859,69.8044627 C668.822312,71.9632619 667.879849,74.5009851 665.182409,77.3269041 C663.380177,79.3629533 661.78009,80.8066003 660.359832,81.71922 C659.208662,82.433038 657.91704,82.9947528 656.398336,83.3590002 C654.619732,83.7859567 653.003893,82.9040245 651.569196,80.6851845 L651.097964,79.9713665 C650.828876,79.6071191 650.717303,79.3175892 650.739618,79.1054451 C650.784247,78.8933011 650.911572,78.7865619 651.142593,78.7558744 L651.569196,78.8319261 C651.703083,78.9533418 651.890788,79.0747576 652.167752,79.1668201 C653.557819,79.7578882 654.917697,79.5911082 656.28545,78.6037711 C657.579696,77.6311106 658.804374,76.4916703 659.99361,75.1534282 L661.407305,73.2841589 L662.02555,72.0393136 C662.326141,71.2027455 662.326141,70.5036041 662.02555,70.017941 C661.571383,69.3027887 660.420213,68.8464788 658.656047,68.6650223 L658.791247,68.6490114 C657.766089,68.4822315 656.613606,68.2700874 655.285231,67.9045058 C654.207568,67.632321 653.527629,67.1146361 653.236227,66.3861415 C652.309515,63.75769 653.497439,61.1118933 656.802624,58.4380777 Z" id="Shape"></path>
            </g>
        </g>
    </g>
</svg>