<?xml version="1.0" encoding="UTF-8"?>
<svg width="90px" height="91px" viewBox="0 0 90 91" version="1.1" xmlns="http://www.w3.org/2000/svg" xmlns:xlink="http://www.w3.org/1999/xlink">
    <!-- Generator: Sketch 52.5 (67469) - http://www.bohemiancoding.com/sketch -->
    <title>Shape</title>
    <desc>Created with Sketch.</desc>
    <g id="RANGER-V2" stroke="none" stroke-width="1" fill="none" fill-rule="evenodd">
        <g id="RANGER-—-LANDING" transform="translate(-844.000000, -1031.000000)" fill="#CFD8DC">
            <g id="Group-28" transform="translate(40.000000, 1000.000000)">
                <path d="M848.874781,31.1490021 C849.787821,31.1434835 850.698506,31 851.606835,31 C852.02842,31 852.448434,31.0307465 852.867663,31.1206208 C858.73844,31.6433109 864.527569,33.2634136 869.750661,36.0250777 C876.506215,39.4994293 882.318112,44.781516 886.534739,51.1129247 C890.83537,57.5523402 893.382147,65.1348939 893.956821,72.8617195 C893.862612,74.9067543 893.802947,76.964403 894,79.0047075 C893.579201,84.8796493 892.115039,90.705712 889.504671,95.9956824 C886.526889,102.144189 882.117133,107.58395 876.749588,111.787545 C870.05998,117.054652 861.852825,120.349256 853.383456,121.129743 C852.093581,121.221982 850.805276,121.461647 849.508335,121.361524 C849.210792,121.341815 848.910894,121.361524 848.611781,121.382022 C848.046529,121.419864 847.483631,121.457705 846.943501,121.226713 C850.10499,112.292102 853.265695,103.354339 856.456232,94.4276122 C858.193599,94.395289 859.932536,94.4008076 861.670688,94.4071146 C863.406485,94.4126332 865.142281,94.4181518 866.877293,94.3858286 C869.093555,94.3093565 871.283909,92.9541465 872.012456,90.7908561 C874.94863,82.4869428 877.960171,74.2058923 880.804491,65.8665023 C881.271609,64.6066852 881.530683,63.2033846 881.158559,61.8844397 C880.655327,60.2130928 879.132285,59.0305361 877.496192,58.5874715 C876.411221,58.2492603 875.281501,58.263451 874.156491,58.27843 C873.807134,58.2823719 873.458561,58.2871021 873.112344,58.2807952 C871.415801,58.2760649 869.719258,58.27843 868.022715,58.2807952 C865.261613,58.2839486 862.501295,58.2871021 859.741763,58.2602975 C859.669537,58.410088 859.523513,58.7065156 859.452071,58.8531526 C852.234109,79.2104724 845.030278,99.5733107 837.784053,119.921958 C830.340774,117.981777 823.405438,114.097472 817.875383,108.730242 C811.214037,102.329456 806.589956,93.817413 804.879282,84.7172448 C804.343077,81.9847504 804.148379,79.2025886 804,76.4290989 C804.120116,70.6519152 805.063774,64.8495035 807.231361,59.4759658 C812.517259,45.9049449 824.749483,35.218574 838.968728,32.1636358 C831.68953,52.4318696 824.579907,72.760808 817.303849,93.0314069 C817.659488,93.1402021 818.030042,93.1338952 818.399027,93.1267998 C818.509722,93.1252231 818.621202,93.122858 818.731898,93.1244347 C820.119122,93.1173394 821.507916,93.1189161 822.894355,93.1204929 C824.160678,93.1220696 825.426216,93.1236463 826.690969,93.1189161 C827.052103,93.116551 827.013634,92.6112051 827.165153,92.379424 C830.361186,83.3186744 833.595687,74.2705387 836.801926,65.213731 C836.994269,64.6531991 837.174051,64.0863603 837.429985,63.5534214 C838.279434,63.5676121 839.128883,63.5652469 839.977547,63.5628818 C840.790098,63.5605167 841.603433,63.5581516 842.415984,63.5707655 C838.930259,73.3867747 835.475938,83.2177629 831.939183,93.0156395 C832.22809,93.1323184 832.536624,93.1291649 832.843587,93.1267998 C832.928375,93.1260115 833.013948,93.1252231 833.097951,93.1267998 C834.379975,93.1149743 835.662785,93.1181277 836.944809,93.1204929 C838.448224,93.1236463 839.950854,93.1267998 841.454269,93.1063022 C844.601628,84.1858827 847.786669,75.2820189 850.941878,66.3679064 C851.616256,64.5444039 851.675137,62.3882088 850.603512,60.7066132 C849.667705,59.2181684 847.889514,58.5070577 846.194541,58.437681 C844.908591,58.3990508 843.622642,58.4053578 842.335907,58.4108764 C841.301965,58.4156066 840.267239,58.4203368 839.233298,58.4014159 C842.423835,49.3099199 845.709366,40.2515354 848.874781,31.1490021 Z M867.353832,63.6695485 C867.48965,63.5150277 867.675712,63.4827045 867.874336,63.4827045 C867.949703,63.4827045 868.027425,63.4874347 868.103577,63.4929533 C868.23861,63.5000487 868.372857,63.5087207 868.493759,63.4913766 C869.109256,63.5024138 869.723968,63.5000487 870.341036,63.4992603 C871.012273,63.4968952 871.684296,63.4945301 872.355533,63.5095091 C869.357339,72.1051197 866.218617,80.6502746 863.268312,89.2632294 C861.601602,89.3822734 859.92076,89.3097432 858.251694,89.2987061 C861.296208,80.7614349 864.309319,72.2099731 867.353832,63.6695485 Z" id="Shape"></path>
            </g>
        </g>
    </g>
</svg>