<?xml version="1.0" encoding="UTF-8"?>
<svg width="120px" height="19px" viewBox="0 0 120 19" version="1.1" xmlns="http://www.w3.org/2000/svg" xmlns:xlink="http://www.w3.org/1999/xlink">
    <!-- Generator: Sketch 52.5 (67469) - http://www.bohemiancoding.com/sketch -->
    <title>Fill 1 Copy 2</title>
    <desc>Created with Sketch.</desc>
    <g id="RANGER-V2" stroke="none" stroke-width="1" fill="none" fill-rule="evenodd">
        <g id="RANGER-—-LANDING" transform="translate(-1022.000000, -1067.000000)" fill="#CFD8DC">
            <g id="Group-28" transform="translate(40.000000, 1000.000000)">
                <g id="Group-3" transform="translate(982.000000, 67.000000)">
                    <path d="M105.373362,5.97971792 L102.341137,11.9594358 L108.762542,11.9594358 L105.373362,5.97971792 Z M110.318566,18.7364495 L110.318566,18.4116335 C111.311337,18.4116335 111.734894,18.1172989 111.734894,17.4695721 C111.734894,17.1742849 111.613193,16.7923166 111.402373,16.4093958 L109.592195,13.2260092 L101.750646,13.2260092 L100.362108,16.026475 C100.181953,16.4093958 100.029587,16.8504215 100.029587,17.2933523 C100.029587,17.9706078 100.332402,18.4116335 101.177599,18.4116335 L101.177599,18.7364495 L96.3210702,18.7364495 L96.3210702,18.4116335 C97.4662067,18.4116335 98.1916194,17.6467444 98.8844509,16.2617522 L104.70596,4.6836361 L103.077854,2.00223776 C102.233616,0.618198053 101.357754,0.323863387 100.483809,0.323863387 L100.483809,0 L108.114538,0 L117.527655,16.4093958 C118.098786,17.4105147 118.733163,18.4116335 120,18.4116335 L120,18.7364495 L110.318566,18.7364495 Z M89.4983278,5.77629267 C89.4983278,2.44274348 87.3114332,1.19594358 84.8844431,1.19594358 L82.2742475,1.19594358 L82.2742475,17.141858 L84.8844431,17.141858 C87.3114332,17.141858 89.4983278,15.8941207 89.4983278,12.5605715 L89.4983278,5.77629267 Z M85.753485,18.7364495 L74.6488294,18.7364495 L74.6488294,18.4116335 C74.8903809,18.4116335 77.0327119,18.2954237 77.0327119,16.1426848 L77.0327119,2.59281217 C77.0327119,0.44102573 74.8903809,0.323863387 74.6488294,0.323863387 L74.6488294,0 L85.753485,0 C90.7321281,0 95.9197324,3.18052897 95.9197324,9.36822473 C95.9197324,15.5844967 90.7321281,18.7364495 85.753485,18.7364495 Z M58.0159486,5.97971792 L54.9832776,11.9594358 L61.4046823,11.9594358 L58.0159486,5.97971792 Z M62.9601403,18.7364495 L62.9601403,18.4116335 C63.9547876,18.4116335 64.3764107,18.1172989 64.3764107,17.4695721 C64.3764107,17.1742849 64.2547149,16.7923166 64.0439034,16.4093958 L62.2347569,13.2260092 L54.3935249,13.2260092 L53.0050433,16.026475 C52.8248953,16.4093958 52.672536,16.8504215 52.672536,17.2933523 C52.672536,17.9706078 52.9743798,18.4116335 53.8195425,18.4116335 L53.8195425,18.7364495 L48.9632107,18.7364495 L48.9632107,18.4116335 C50.109259,18.4116335 50.8317677,17.6467444 51.5274459,16.2617522 L57.3477615,4.6836361 L55.7187631,2.00223776 C54.8755168,0.618198053 53.9996906,0.323863387 53.1248226,0.323863387 L53.1248226,0 L60.7571595,0 L70.1670211,16.4093958 C70.7410035,17.4105147 71.3753546,18.4116335 72.6421405,18.4116335 L72.6421405,18.7364495 L62.9601403,18.7364495 Z M34.769237,1.19594358 L30.90301,1.19594358 L30.90301,10.3648444 L34.769237,10.3648444 C37.5716658,10.3648444 38.9297659,8.22997579 38.9297659,5.79478636 C38.9297659,3.36151591 37.5716658,1.19594358 34.769237,1.19594358 Z M39.7638828,18.7364495 L30.9599825,11.636221 L30.9599825,16.1426848 C30.9599825,18.2954237 33.1088223,18.4116335 33.3509992,18.4116335 L33.3509992,18.7364495 L23.277592,18.7364495 L23.277592,18.4116335 C23.5188079,18.4116335 25.6676477,18.2954237 25.6676477,16.1426848 L25.6676477,2.59281217 C25.6676477,0.44102573 23.5188079,0.323863387 23.277592,0.323863387 L23.277592,0 L37.4362934,0 C41.9425142,0 44.0606014,2.91667556 44.0606014,5.83239858 C44.0606014,8.7214505 41.9425142,11.636221 37.4362934,11.636221 L33.0194474,11.636221 C33.9871941,12.6373399 36.0139844,13.050742 37.859142,13.050742 C38.6740866,13.050742 39.4909533,12.9316745 40.1886535,12.7564073 L47.3578595,18.4697384 L47.3578595,18.7364495 L39.7638828,18.7364495 Z M11.4760025,1.19594358 L7.62541806,1.19594358 L7.62541806,10.3648444 L11.4760025,10.3648444 C14.3206546,10.3648444 15.6521739,8.22997579 15.6521739,5.79478636 C15.6521739,3.36151591 14.3206546,1.19594358 11.4760025,1.19594358 Z M14.1970094,11.636221 L7.73550055,11.636221 L7.73550055,16.1426848 C7.73550055,18.2954237 9.88933682,18.4116335 10.1321855,18.4116335 L10.1321855,18.7364495 L0,18.7364495 L0,18.4116335 C0.242848653,18.4116335 2.39668492,18.2954237 2.39668492,16.1426848 L2.39668492,2.59281217 C2.39668492,0.44102573 0.242848653,0.323863387 0,0.323863387 L0,0 L14.1970094,0 C18.7166926,0 20.8695652,2.91667556 20.8695652,5.83239858 C20.8695652,8.7214505 18.7166926,11.636221 14.1970094,11.636221 Z" id="Fill-1-Copy-2"></path>
                </g>
            </g>
        </g>
    </g>
</svg>