<?xml version="1.0" standalone="no"?>
<!DOCTYPE svg PUBLIC "-//W3C//DTD SVG 20010904//EN"
 "http://www.w3.org/TR/2001/REC-SVG-20010904/DTD/svg10.dtd">
<svg version="1.0" xmlns="http://www.w3.org/2000/svg"
 width="960.000000pt" height="960.000000pt" viewBox="0 0 960.000000 960.000000"
 preserveAspectRatio="xMidYMid meet">
<metadata>
Created by potrace 1.11, written by Peter Selinger 2001-2013
</metadata>
<g transform="translate(0.000000,960.000000) scale(0.100000,-0.100000)"
fill="#000000" stroke="none">
<path d="M1280 4800 l0 -4800 803 0 802 0 0 1942 0 1943 1153 0 c634 0 1159
-3 1165 -7 7 -4 8 -8 3 -8 -5 0 -4 -6 1 -12 6 -7 16 -35 23 -63 7 -27 16 -54
19 -60 3 -5 6 -17 8 -25 1 -8 14 -51 29 -95 14 -44 27 -84 28 -90 2 -5 6 -17
9 -25 3 -8 22 -69 42 -135 20 -66 52 -167 70 -225 43 -135 49 -154 50 -160 1
-3 23 -72 50 -155 26 -82 48 -152 48 -155 -1 -3 5 -21 12 -40 8 -19 23 -69 35
-110 12 -41 26 -84 30 -95 10 -22 131 -414 134 -430 1 -5 4 -14 7 -20 3 -5 16
-44 29 -85 12 -41 36 -115 52 -165 16 -49 31 -97 33 -105 2 -8 15 -51 29 -95
15 -44 32 -98 38 -120 15 -50 14 -47 21 -65 3 -8 26 -82 52 -165 46 -148 98
-316 154 -490 16 -49 46 -144 66 -210 20 -66 45 -145 55 -175 16 -49 72 -227
75 -240 1 -3 5 -17 9 -32 l8 -28 864 0 c717 0 864 2 864 13 0 8 -8 38 -19 68
-10 30 -19 57 -20 61 -1 4 -3 13 -6 20 -5 15 -58 190 -60 198 -5 17 -42 141
-70 230 -63 199 -116 370 -120 388 -4 17 -54 178 -82 262 -8 25 -16 52 -18 60
-6 26 -146 484 -155 505 -4 11 -18 54 -30 95 -21 75 -32 108 -46 145 -4 11 -8
25 -9 30 -2 6 -11 37 -21 70 -10 33 -19 62 -19 65 -1 3 -4 12 -7 20 -8 19 -60
192 -62 205 -1 6 -15 48 -30 95 -16 47 -29 90 -30 95 -3 14 -55 182 -73 235
-8 25 -16 52 -18 60 -2 8 -8 29 -15 45 -6 17 -12 32 -12 35 0 3 -2 10 -4 15
-1 6 -14 51 -29 100 -14 50 -30 98 -35 107 -6 10 -10 24 -10 32 0 8 -20 77
-44 153 -24 76 -56 179 -71 228 -14 50 -29 97 -32 105 -4 8 -7 17 -8 20 -7 23
-29 97 -31 105 -5 20 -102 330 -109 346 -7 18 18 49 41 49 8 0 14 5 14 12 0 6
3 9 6 5 3 -3 40 15 82 40 43 25 93 54 112 65 19 11 44 28 55 37 11 9 38 29 60
44 22 15 54 38 70 53 17 14 45 38 64 52 134 106 338 341 454 525 123 193 238
471 283 682 17 77 26 125 30 155 3 19 7 49 9 65 2 17 7 66 11 110 9 100 9
1237 1 1362 -8 108 -27 246 -43 313 -4 14 -8 34 -10 45 -4 26 -10 46 -17 65
-4 12 -28 100 -33 120 0 3 -4 14 -9 25 -4 11 -22 58 -40 105 -31 81 -99 226
-142 300 -34 60 -115 183 -128 197 -8 7 -17 22 -20 33 -3 11 -10 20 -14 20 -4
0 -25 24 -46 53 -47 62 -274 291 -330 333 -22 16 -49 37 -60 47 -17 15 -196
135 -260 174 -26 15 -177 90 -235 116 -52 23 -72 30 -120 47 -19 7 -44 16 -55
20 -25 11 -82 28 -115 34 -14 3 -60 14 -102 25 -42 11 -96 22 -120 26 -24 3
-81 12 -128 19 -69 11 -526 14 -2462 15 l-2378 1 0 -4800z m1690 3200 c7 4 23
5 34 0 11 -4 33 -4 48 1 16 4 28 4 28 -1 0 -5 13 -5 29 0 15 4 34 5 40 1 7 -4
32 -5 56 -1 24 4 50 3 57 -1 6 -4 19 -4 28 1 9 5 22 5 29 0 8 -4 27 -4 42 0
16 5 29 5 29 0 0 -5 13 -5 30 0 17 5 30 5 30 0 0 -5 13 -5 30 0 17 5 30 5 30
0 0 -5 13 -5 30 0 17 5 30 5 30 0 0 -5 13 -5 30 0 17 5 30 6 30 2 0 -8 68 -7
76 1 3 3 17 2 30 -3 14 -6 26 -6 29 0 3 5 16 6 28 1 12 -4 33 -5 47 -1 14 4
35 3 47 -1 12 -5 25 -4 28 1 3 6 15 6 29 0 13 -5 27 -6 30 -3 8 8 76 9 76 1 0
-4 14 -3 30 2 17 5 30 5 30 0 0 -5 13 -5 30 0 17 5 30 5 30 0 0 -5 13 -5 30 0
17 5 32 5 35 0 3 -5 16 -5 30 0 15 6 27 6 30 0 3 -5 15 -6 29 0 12 4 29 4 36
0 8 -5 21 -5 31 0 9 5 19 6 23 3 8 -8 102 -7 116 2 5 3 10 2 10 -4 0 -6 11 -6
30 -1 17 5 30 5 30 0 0 -4 16 -4 35 0 19 4 37 4 40 -1 3 -4 17 -4 30 1 15 6
27 6 30 0 3 -5 16 -6 28 -2 24 8 79 7 103 -2 8 -3 14 -1 14 4 0 5 13 5 30 0
17 -5 30 -5 30 0 0 5 13 5 30 0 17 -5 30 -5 30 0 0 5 13 5 30 0 17 -5 30 -5
30 0 0 5 13 5 30 0 17 -5 30 -5 30 0 0 5 13 5 30 0 17 -5 30 -5 30 0 0 5 13 5
30 0 17 -5 30 -5 30 0 0 5 13 5 30 0 17 -5 30 -5 30 0 0 5 13 5 30 0 17 -5 30
-5 30 0 0 5 12 5 28 1 28 -7 75 -6 99 3 7 3 13 1 13 -4 0 -5 13 -5 30 0 17 5
30 5 30 0 0 -4 16 -4 35 0 19 4 37 4 40 -1 3 -4 17 -4 30 1 15 6 27 6 30 -1 4
-5 11 -7 16 -3 8 5 94 8 109 4 3 0 34 -2 70 -4 74 -4 122 -13 165 -31 91 -37
135 -59 135 -67 0 -4 5 -8 11 -8 16 0 94 -63 148 -119 84 -89 138 -181 174
-300 l26 -83 0 -587 c0 -656 -1 -672 -70 -786 -73 -122 -249 -241 -397 -270
-12 -2 -25 -6 -30 -8 -27 -17 -305 -21 -1652 -21 l-1515 -1 0 1139 c0 1134 0
1138 20 1146 11 4 27 4 36 0 8 -5 21 -5 29 0z"/>
</g>
</svg>
